<svg fill="#000000" height="800px" width="800px" version="1.1" id="Layer_1" xmlns="http://www.w3.org/2000/svg" xmlns:xlink="http://www.w3.org/1999/xlink" 
	 viewBox="0 0 512 512" xml:space="preserve">
<g>
	<g>
		<path d="M428.355,446.171h-0.137c-5.771,0-10.449,4.678-10.449,10.449c0,5.771,4.678,10.449,10.449,10.449h0.137
			c5.771,0,10.449-4.678,10.449-10.449C438.804,450.849,434.126,446.171,428.355,446.171z"/>
	</g>
</g>
<g>
	<g>
		<path d="M294.054,212.115c-6.441,0-11.68,5.239-11.68,11.68c0,6.44,5.239,11.679,11.68,11.679c6.441,0,11.68-5.239,11.68-11.679
			C305.734,217.354,300.495,212.115,294.054,212.115z"/>
	</g>
</g>
<g>
	<g>
		<path d="M217.841,212.115c-6.441,0-11.68,5.239-11.68,11.68c0,6.44,5.239,11.679,11.68,11.679c6.441,0,11.68-5.239,11.68-11.679
			C229.521,217.354,224.282,212.115,217.841,212.115z"/>
	</g>
</g>
<g>
	<g>
		<path d="M266.202,261.345h-20.421c-5.771,0-10.449,4.678-10.449,10.449c0,11.391,9.268,20.66,20.66,20.66
			c11.391,0,20.66-9.268,20.66-20.66C276.651,266.023,271.973,261.345,266.202,261.345z"/>
	</g>
</g>
<g>
	<g>
		<path d="M474.292,167.511c-7.97-9.585-20.991-12.878-35.724-9.036c-20.159,5.26-33.737,18.927-39.265,39.525
			c-3.935,14.665-2.225,27.864-2.15,28.419c0.568,4.217,3.636,7.667,7.757,8.726c0.863,0.22,1.735,0.328,2.599,0.328
			c3.264,0,6.403-1.533,8.402-4.238c6.696-9.059,15.736-15.092,38.095-15.092c10.746,0,19.867-5.77,24.398-15.433
			C483.471,189.904,481.819,176.562,474.292,167.511z M459.484,191.837c-1.417,3.021-3.671,3.408-5.477,3.408
			c-13.601,0-24.73,2.002-33.974,6.259c3.049-9.445,9.691-19.125,23.811-22.808c1.984-0.518,4.254-0.928,6.467-0.928
			c3.042,0,5.977,0.773,7.914,3.105C460.558,183.68,461.099,188.393,459.484,191.837z"/>
	</g>
</g>
<g>
	<g>
		<path d="M493.007,239.788c-17.974-10.537-37.239-10.472-55.713,0.184c-13.153,7.587-21.277,18.13-21.617,18.575
			c-2.58,3.383-2.852,7.993-0.685,11.656c2.166,3.662,6.337,5.648,10.544,5.013c11.14-1.672,21.8,0.456,37.609,16.266
			c5.254,5.254,11.909,8.008,18.833,8.008c3.09-0.001,6.234-0.55,9.332-1.669c11.225-4.057,19.49-14.66,20.568-26.383
			C513.02,259.023,506.141,247.487,493.007,239.788z M491.067,269.526c-0.333,3.634-3.284,7.349-6.862,8.642
			c-3.136,1.133-5.006-0.186-6.283-1.464c-9.615-9.614-18.895-16.065-28.438-19.593c11.282-5.906,22.081-5.67,32.954,0.705
			C486.638,260.28,491.546,264.31,491.067,269.526z"/>
	</g>
</g>
<g>
	<g>
		<path d="M472.242,337.589h-32.154v-23.506c0-5.771-4.678-10.449-10.449-10.449h-71.97c-5.771,0-10.449,4.678-10.449,10.449v23.506
			h-32.154c-2.201,0-4.392,0.201-6.553,0.564V323.21l27.313-15.661c0.19-0.109,0.377-0.225,0.561-0.346
			c13.676-9.031,22.656-25.093,24.022-42.965c0.021-0.264,0.03-0.531,0.03-0.796v-8.675c13.569-4.414,23.405-17.182,23.405-32.205
			c0-15.022-9.836-27.791-23.405-32.205v-3.342c10.394-3.224,20.678-6.916,30.816-11.116c3.227-1.336,5.572-4.197,6.251-7.622
			c0.679-3.426-0.399-6.964-2.872-9.43c-12.228-12.192-23.798-25.127-34.441-38.467l-8.282-41.778
			c-3.866-19.51-21.109-33.672-40.998-33.672H201.087c-19.89,0-37.132,14.161-40.998,33.672l-8.282,41.778
			c-10.644,13.342-22.214,26.278-34.441,38.468c-2.473,2.465-3.551,6.004-2.872,9.429c0.678,3.426,3.024,6.286,6.25,7.622
			c10.048,4.163,20.312,7.847,30.716,11.07v3.389c-13.569,4.414-23.405,17.182-23.405,32.205c0,15.022,9.836,27.791,23.405,32.205
			v8.675c0,0.265,0.01,0.532,0.03,0.796c1.372,17.945,10.289,34.006,23.854,42.965c0.187,0.123,0.378,0.24,0.573,0.352
			l27.469,15.704v16.221c0,2.59-1.545,4.908-3.936,5.905l-67.248,28.02c-17.599,7.334-29.89,26.679-29.89,47.045v70.65h-9.673
			c1.574-3.874,2.448-8.105,2.448-12.539V374.073c0-14.783-9.648-27.348-22.974-31.751v-31.987h1.615
			c5.771,0,10.449-4.678,10.449-10.449c0-5.771-4.678-10.449-10.449-10.449h-1.615v-18.808h1.615
			c5.771,0,10.449-4.678,10.449-10.449s-4.678-10.449-10.449-10.449h-1.615v-18.808h1.615c5.771,0,10.449-4.678,10.449-10.449
			s-4.678-10.449-10.449-10.449h-1.615v-18.808h1.615c5.771,0,10.449-4.678,10.449-10.449c0-5.771-4.678-10.449-10.449-10.449
			h-1.615v-18.808h1.615c5.771,0,10.449-4.678,10.449-10.449s-4.678-10.449-10.449-10.449h-1.615v-18.808h1.615
			c5.771,0,10.449-4.678,10.449-10.449c0-5.771-4.678-10.449-10.449-10.449h-1.615V78.368c0-5.771-4.678-10.449-10.449-10.449
			s-10.449,4.678-10.449,10.449v263.944c-13.341,4.395-23.001,16.967-23.001,31.761v104.489c0,4.434,0.875,8.664,2.448,12.539
			H10.449C4.678,491.101,0,495.779,0,501.55c0,5.771,4.678,10.449,10.449,10.449h312.423h76.266h102.223
			c0.329,0,0.598-0.016,0.825-0.042c5.383-0.422,9.623-4.915,9.623-10.407V377.157C511.81,355.339,494.059,337.589,472.242,337.589z
			 M49.11,374.073c0-6.914,5.625-12.539,12.539-12.539c3.964,0,7.499,1.855,9.798,4.737L49.11,382.323V374.073z M74.187,478.562
			c0,6.914-5.625,12.539-12.539,12.539c-3.855,0-7.306-1.751-9.608-4.497l22.146-15.915V478.562z M74.187,444.955L49.11,462.976
			v-14.592l25.077-18.021V444.955z M74.187,404.627L49.11,422.649v-14.593l25.077-18.021V404.627z M368.117,324.533h51.072v13.057
			h-51.072V324.533z M180.588,82.666c1.933-9.755,10.554-16.836,20.5-16.836h109.825c9.945,0,18.567,7.08,20.5,16.836l6.972,35.178
			c-41.43,12.701-85.617,15.674-128.382,8.569c-12.243-2.034-24.441-4.922-36.382-8.583L180.588,82.666z M143.225,162.201
			c7.632-8.133,14.975-16.525,21.955-25.094c13.561,4.275,27.451,7.606,41.396,9.922c46.742,7.766,95.064,4.328,140.243-9.92
			c6.98,8.568,14.323,16.961,21.957,25.095c-56.872,20.535-117.89,25.17-177.457,13.356
			C175.019,172.33,158.901,167.851,143.225,162.201z M186.603,289.592c-7.986-5.406-13.286-15.292-14.247-26.571v-17.054
			c0-5.771-4.678-10.449-10.449-10.449c-7.144,0-12.956-5.813-12.956-12.956s5.813-12.956,12.956-12.956
			c5.771,0,10.449-4.678,10.449-10.449v-6.41c4.948,1.206,9.913,2.324,14.899,3.311c22.875,4.537,45.942,6.791,68.94,6.791
			c28.069,0,56.02-3.38,83.345-10.049v6.356c0,5.771,4.678,10.449,10.449,10.449c7.144,0,12.956,5.813,12.956,12.956
			c0,7.143-5.813,12.956-12.956,12.956c-5.771,0-10.449,4.678-10.449,10.449v17.052c-0.949,11.049-6.443,21.175-14.419,26.577
			l-56.1,32.168c-0.191,0.11-0.377,0.225-0.561,0.346c-7.831,5.173-17.185,5.174-25.02,0c-0.187-0.123-0.377-0.241-0.573-0.352
			L186.603,289.592z M287.613,335.192v41.822c0,17.381-14.182,31.521-31.615,31.521c-17.488,0-31.717-14.141-31.717-31.521v-41.808
			l7.939,4.539c7.335,4.764,15.531,7.145,23.727,7.145c8.199,0,16.399-2.383,23.734-7.149L287.613,335.192z M123.208,491.101v-70.65
			c0-11.777,7.322-23.71,17.031-27.755l4.87-2.029c2.154,4.628,3.277,9.657,3.277,14.856v85.579H123.208z M312.423,491.101H199.84
			v-24.033h112.583V491.101z M342.612,405.521v85.58h-9.291V456.62c0-5.771-4.678-10.449-10.449-10.449H189.391
			c-5.771,0-10.449,4.678-10.449,10.449v34.481h-9.658v-85.58c0-8.004-1.667-15.748-4.869-22.9l38.969-16.237v10.63
			c0,28.904,23.603,52.419,52.615,52.419c28.956,0,52.513-23.515,52.513-52.419v-10.63l38.969,16.237
			C344.279,389.774,342.612,397.517,342.612,405.521z M388.69,491.101h-0.001H363.51v-85.58c0-5.199,1.123-10.227,3.278-14.856
			l4.871,2.029c9.709,4.046,17.031,15.977,17.031,27.755V491.101z M490.912,401.24L490.912,401.24h-66.927
			c-5.771,0-10.449,4.678-10.449,10.449s4.678,10.449,10.449,10.449h66.926v24.033H462.16c-5.771,0-10.449,4.678-10.449,10.449
			c0,5.771,4.678,10.449,10.449,10.449h28.752v24.033h-81.325v-70.65c0-20.367-12.292-39.713-29.891-47.046l-35.802-14.917h128.349
			c10.295,0,18.67,8.376,18.67,18.67V401.24z"/>
	</g>
</g>
<g>
	<g>
		<path d="M149.328,312.462c-5.771,0-10.449,4.678-10.449,10.449c0,6.325-5.146,11.471-11.471,11.471
			c-6.325,0-11.471-5.146-11.471-11.471V32.37c0-17.849-14.52-32.369-32.369-32.369C65.72,0.001,51.2,14.521,51.2,32.37v13.084
			c0,5.771,4.678,10.449,10.449,10.449s10.449-4.678,10.449-10.449V32.37c0-6.325,5.146-11.471,11.471-11.471
			c6.325,0,11.471,5.146,11.471,11.471v290.54c0,17.849,14.52,32.369,32.369,32.369c17.848,0,32.369-14.52,32.369-32.368
			C159.777,317.14,155.099,312.462,149.328,312.462z"/>
	</g>
</g>
</svg>